<svg version="1.2" xmlns="http://www.w3.org/2000/svg" xmlns:xlink="http://www.w3.org/1999/xlink" overflow="visible" preserveAspectRatio="none" viewBox="0 0 24 24" width="24" height="24"><g><path xmlns:default="http://www.w3.org/2000/svg" id="star-o" d="M15.92,18.21l-3.93-2.07l-3.94,2.07l0.76-4.38l-3.18-3.09l4.36-0.65l2-4l2,4l4.39,0.65l-3.19,3.09L15.92,18.21z   M20.66,10.11c-0.03-0.29-0.29-0.5-0.58-0.48l-5.24-0.76L12.5,4.14c-0.08-0.28-0.37-0.44-0.64-0.36c-0.17,0.05-0.31,0.18-0.36,0.36  L9.14,8.87L3.91,9.63C3.62,9.6,3.37,9.82,3.33,10.11c0.02,0.19,0.11,0.37,0.26,0.5l3.79,3.69l-0.9,5.21c0,0.07,0,0.14,0,0.21  c0,0.13,0.03,0.26,0.11,0.37c0.08,0.1,0.2,0.16,0.33,0.15c0.15,0,0.29-0.05,0.42-0.12l4.65-2.47l4.67,2.46  c0.13,0.08,0.27,0.12,0.42,0.12c0.23,0.01,0.43-0.17,0.44-0.4c0-0.04,0-0.08-0.01-0.12c0-0.07,0-0.14,0-0.21l-0.9-5.21l3.78-3.69  C20.55,10.47,20.64,10.29,20.66,10.11L20.66,10.11L20.66,10.11z" style="fill: rgb(255, 200, 50);" vector-effect="non-scaling-stroke"/></g></svg>